<?xml version="1.0" encoding="utf-8"?>
<!-- Generator: Adobe Illustrator 21.1.0, SVG Export Plug-In . SVG Version: 6.00 Build 0)  -->
<svg version="1.1" id="Layer_1" xmlns="http://www.w3.org/2000/svg" xmlns:xlink="http://www.w3.org/1999/xlink" x="0px" y="0px"
	 viewBox="0 0 1200 1200" style="enable-background:new 0 0 1200 1200;" xml:space="preserve">
<style type="text/css">
	.st0{fill:#433051;stroke:#FFFFFF;stroke-width:24;stroke-miterlimit:10;}
	.st1{fill:none;stroke:#FFFFFF;stroke-width:24;}
	.st2{fill:#C97171;stroke:#FFFFFF;stroke-width:24;stroke-miterlimit:10;}
	.st3{fill:#FC9CFF;stroke:#FFFFFF;stroke-width:24;stroke-miterlimit:10;}
	.st4{fill:#E2F45D;stroke:#FFFFFF;stroke-width:24;stroke-miterlimit:10;}
	.st5{fill:#433051;}
	.st6{fill:none;stroke:#FFFFFF;stroke-width:21.19;}
	.st7{fill:#C97171;}
	.st8{fill:#FC9CFF;}
	.st9{fill:#E2F45D;}
	.st10{fill:#FFFFFF;}
</style>
<g id="Layer_2_1_">
	<path class="st0" d="M184.4,638.4c5.8-195.7,199-348.8,431.5-341.9s437.7,171.1,432,366.8c-5.8,195.6-220.4,348.8-453,341.9
		C362.4,998.3,178.6,834,184.4,638.4z"/>
	
		<ellipse transform="matrix(2.948668e-02 -0.9996 0.9996 2.948668e-02 -453.7902 1064.5403)" class="st1" cx="321.3" cy="766" rx="83.6" ry="73.8"/>
	
		<ellipse transform="matrix(2.948668e-02 -0.9996 0.9996 2.948668e-02 70.8126 1637.9498)" class="st1" cx="878.9" cy="782.5" rx="83.6" ry="73.8"/>
	
		<ellipse transform="matrix(2.948668e-02 -0.9996 0.9996 2.948668e-02 -316.5566 1246.5675)" class="st1" cx="483.7" cy="786.3" rx="47.5" ry="47.5"/>
	
		<ellipse transform="matrix(2.948668e-02 -0.9996 0.9996 2.948668e-02 -85.1858 1499.2169)" class="st1" cx="729.5" cy="793.5" rx="47.5" ry="47.5"/>
	<path class="st1" d="M552,851c3.5,27.7,27.5,48,54,47c24-0.9,45-19.1,49.6-43.9"/>
	<path class="st0" d="M569.5,288.6c17.8-9,32.2-23.3,49-34.1c16.8-10.7,17.1,25.5,35.2,33.9c4.5,2.1,8.7,5.1,13.6,6
		c5.6,1,8.8-21.7,14.5-22.4c18.7-2.1,47.5-16.3,74.1-10.2c129.2,11.9,149.4,147,203.9,231.5s128.5,80,112.4,283.3
		c0,7.8-0.2,15.8,1.3,23.6c1.3,6.6-17.8,13-15.8,19.5c2.7,9.1,4.4,18.7,1.9,27.9s-9.6,17.5-19.1,18.7c-17.1,2.2-27.8-17.6-33.3-33.9
		c4.7,40.3,5.2,80.7-19.5,112.8c-4.1,5.2-20.9,10.6-27.5,11.5c-4.4,0.5-8.8-1-13.1-1.9c-10.6-2.4-21.6-1.6-31.7,2.2
		c-18.8,7.3-32,24.1-44.2,40.3c-4.7,6.3-9.6,23.5-16.7,27c-7.1,3.5-16.8,3-21.4-3.4c-5.5,13.1-16.1,28.7-29.6,24.6
		c-8.8-2.7-13.1-13.4-11.9-22.5s-132.9-38.7-128.4-46.7c27.8-50.4,171.5-99.4,174.2-157c3.7-80.6,3.6-166.8-40-234.6
		C757.8,523.1,689,487.5,623,455.8c-14.8-7.1-29.9-14.3-41.4-25.9c-11.6-11.6-19.2-28.5-15.2-44.4"/>
	<path class="st0" d="M596.6,310.8c-1.2-16.9-6.4-33.3-15.1-47.9c-6.3-10.5-15.3-20.3-27.3-22.7s-26.3,6.3-25.8,18.4
		c-13.2-8.5-28.4,13.6-42.9,8c-71.7-26.9-133.3,15.5-145.6,25.2c-26.6,20.9,44.9,29.7,25.6,57.4c-7,10-9.9,22.3-16.3,32.6
		c-7,11-31.3-13.2-41.7-5.2l-27.8,4.7C151.9,423.1,114,628.5,114,733.1c0,7.5,0.6,15.8,6.3,20.7c6.1,5.1,14.2,1,16.1-5.7
		c21.8,30.5,2.5,59.2,6.1,94.2l2.6,24.9c2.7,25.6,6.2,67,38.1,75c4.4-1.3,8-4.2,10.2-8.2c1.7,10.1,4.5,20.8,12.4,27.2
		s22.4,5.2,25.6-4.4c3.1,16.5,22.6,27.8,38.4,22.4c6.3,12.2,8.6,26.4,16.7,37.5c8.1,11.1,26.3,16.8,35.2,6.3
		c8.2-9.9,1.8-24.6-3-36.5c2.6-26.3-1.3-15.7,8.4-44.1c8.4,45.8,9,53.6,47.4,80c8.5,5.8,21.3,9.5,27.9,1.7
		c6.5-7.6,87.2-29.8,82.5-38.5c-27.4-51.4-124.4-99.3-118.1-157.2c3.5-31.3,12.1-62.3,10.8-93.8c-2.7-62.4-43.3-115.9-82.3-164.7
		c70.2-34.3,126.8-90.5,185.9-141.8c10.7-9.2,22.4-18.7,36.4-20c10.7-1,21.2,3,31.8,5.2c23.9,5,48.7,1.1,69.9-10.9"/>
	<path class="st2" d="M904.1,791.6c-4.2,140.3-141.6,218-306.9,213.1s-296-90.5-291.9-230.9s145.1-315.2,310.4-310.4
		C781.1,468.2,908.3,651.2,904.1,791.6z"/>
	
		<ellipse transform="matrix(2.948668e-02 -0.9996 0.9996 2.948668e-02 -453.7902 1064.5403)" class="st2" cx="321.3" cy="766" rx="83.6" ry="73.8"/>
	
		<ellipse transform="matrix(2.948668e-02 -0.9996 0.9996 2.948668e-02 70.8126 1637.9498)" class="st2" cx="878.9" cy="782.5" rx="83.6" ry="73.8"/>
	
		<ellipse transform="matrix(2.948668e-02 -0.9996 0.9996 2.948668e-02 -316.5566 1246.5675)" class="st0" cx="483.7" cy="786.3" rx="47.5" ry="47.5"/>
	
		<ellipse transform="matrix(2.948668e-02 -0.9996 0.9996 2.948668e-02 -85.1858 1499.2169)" class="st0" cx="729.5" cy="793.5" rx="47.5" ry="47.5"/>
	<path class="st2" d="M444.5,338.6c-50.6,30-108.3,77.4-137.1,76.9c-41.6-0.7-27.5-104.5-15.1-162s38.5-70.5,80.2-36.4
		C419.4,255.6,478,318.7,444.5,338.6z"/>
	<path class="st3" d="M426.1,346.2c-35.2,20.9-75.4,53.9-95.5,53.5c-28.9-0.5-19.2-72.8-10.5-112.8c8.6-40,26.8-49.1,55.8-25.3
		C408.7,288.5,449.4,332.4,426.1,346.2z"/>
	<path class="st2" d="M739.2,350.3c50.6,30,108.3,77.4,137.1,76.9c41.6-0.7,27.5-104.5,15.1-162s-38.5-70.5-80.2-36.4
		C764.3,267.4,705.8,330.5,739.2,350.3z"/>
	<path class="st3" d="M757.6,358c35.2,20.9,75.4,53.9,95.5,53.5c28.9-0.5,19.2-72.8,10.5-112.8s-26.8-49.1-55.8-25.3
		C775.1,300.3,734.3,344.2,757.6,358z"/>
	<path class="st0" d="M1005.9,971.5l-17.8-94.1l-1.3-20.3c-1.2-18-2.4-36.1-3.7-54.1c-2-25.2-4.7-50.3-9.7-75.1
		c-11.8-59-37.3-116.2-78.6-160c-39.6-42.1-94.7-70.9-152.3-73.9l-222-142.4C367.4,418.2,243,548.4,183.7,704.5
		c-3.6,9.4-7,19.7-4.5,29.4s13.4,18,22.6,13.9c-1.6,21.7,1,43.6,7.5,64.4c4.4,13.9,16.5,30.1,30,24.5c-1.3,14.7,1.4,29.3,7.8,42.5
		c3.3,6.7,8.1,13.4,15.2,15.5s16.5-2.5,16.5-10c1.5,13.7,6.2,28.2,17.6,36.1c11.4,7.9,30.2,5,34.9-7.9c1.8-5.2,1.2-10.9,0.6-16.4
		c-4.4-43.3,19.1-12,27.3-54.7c1.8,6.4,5,12.4,9.3,17.5c7.8,8.7,21.4,13,31.5,7.1c11.5-6.9,13.1-23,9.9-36s-20.6-100.2-20.8-113.5
		c-0.1-7.1,1.6-14,1.9-21c0.5-12.6,7.3-14.3,6.7-27c-0.1-1.9-0.1-3.7,0-5.6c2.4-4.8,4.8-9.5,7.4-14.2
		c51.8-119.4,90.4-177.9,167.4-162.3c12.3,1.5,5.6,1.2,19.7,2.1c17.8-12.2,53.2-8.7,71.5,2.6c18.3,11.2,31.3,29.6,42,48.2
		c23.3,41,27.7,43.5,33.6,90.3c-3,9.5,4.8,30.4,7.2,40.2c2.4,9.7,12.3,18.3,22,15.5c-8.7,10.7-0.3,28.8,13.1,32.4
		c13.4,3.6,30.8,4.6,39.1-6.5c5.1-7,5.4-24.5,3-33s-12.1-14.8-20-11.2c4.3-9.3,8.7-19.3,7.1-29.3c-1.7-10.9-11.6-15.6-20.3-18.4
		c2.4-3.5,5.6-7.2,7.4-11c2.4-5.1,2.7-11.7-0.9-16.1c-1.2-1.4-2.7-2.6-3.5-4.2c-1.7-3-1.1-6.7-0.5-10.2c0.1-1-42.6-1.9-42.5-2.9
		c35.8,19.2,63.5,53,79.6,90.7c19.6,46,66.4,97.3,63.9,147.2s-11.1,99.4-15.6,149.2c-1.1,12-1.5,25.4,6.4,34.5
		c8.4,9.5,22.7,10.5,32.2,2.1c4.4-3.9,7.2-9.3,7.7-15.2c0.6-7.7-2.6-15.3-2-22.9c0.4-6.1,3.1-11.8,4.4-17.8
		c4.5-21.4-9.1-45.1,0.5-64.8c18.4,27.1,28.3,59.2,28.1,92.1c-0.1,8-0.7,16.2,1.6,23.9c2.4,7.7,20.2,14.9,28.3,15.5L1005.9,971.5z"
		/>
	<polygon class="st4" points="513.2,317.6 680.2,324 702.7,105.5 639.6,226.5 609.6,108.8 561.4,223.3 510,107.7 	"/>
</g>
<g id="Layer_2">
	<path class="st5" d="M184.4,638.4c5.8-195.7,199-348.8,431.5-341.9s437.7,171.1,432,366.8c-5.8,195.6-220.4,348.8-453,341.9
		C362.4,998.3,178.6,834,184.4,638.4z"/>
	
		<ellipse transform="matrix(2.948668e-02 -0.9996 0.9996 2.948668e-02 -453.7902 1064.5403)" class="st6" cx="321.3" cy="766" rx="83.6" ry="73.8"/>
	
		<ellipse transform="matrix(2.948668e-02 -0.9996 0.9996 2.948668e-02 70.8126 1637.9498)" class="st6" cx="878.9" cy="782.5" rx="83.6" ry="73.8"/>
	
		<ellipse transform="matrix(2.948668e-02 -0.9996 0.9996 2.948668e-02 -316.5566 1246.5675)" class="st6" cx="483.7" cy="786.3" rx="47.5" ry="47.5"/>
	
		<ellipse transform="matrix(2.948668e-02 -0.9996 0.9996 2.948668e-02 -85.1858 1499.2169)" class="st6" cx="729.5" cy="793.5" rx="47.5" ry="47.5"/>
	<path class="st6" d="M552,851c3.5,27.7,27.5,48,54,47c24-0.9,45-19.1,49.6-43.9"/>
	<path class="st5" d="M569.5,288.6c17.8-9,32.2-23.3,49-34.1c16.8-10.7,17.1,25.5,35.2,33.9c4.5,2.1,8.7,5.1,13.6,6
		c5.6,1,8.8-21.7,14.5-22.4c18.7-2.1,47.5-16.3,74.1-10.2c129.2,11.9,149.4,147,203.9,231.5s128.5,80,112.4,283.3
		c0,7.8-0.2,15.8,1.3,23.6c1.3,6.6-17.8,13-15.8,19.5c2.7,9.1,4.4,18.7,1.9,27.9s-9.6,17.5-19.1,18.7c-17.1,2.2-27.8-17.6-33.3-33.9
		c4.7,40.3,5.2,80.7-19.5,112.8c-4.1,5.2-20.9,10.6-27.5,11.5c-4.4,0.5-8.8-1-13.1-1.9c-10.6-2.4-21.6-1.6-31.7,2.2
		c-18.8,7.3-32,24.1-44.2,40.3c-4.7,6.3-9.6,23.5-16.7,27c-7.1,3.5-16.8,3-21.4-3.4c-5.5,13.1-16.1,28.7-29.6,24.6
		c-8.8-2.7-13.1-13.4-11.9-22.5s-132.9-38.7-128.4-46.7c27.8-50.4,171.5-99.4,174.2-157c3.7-80.6,3.6-166.8-40-234.6
		C757.8,523.1,689,487.5,623,455.8c-14.8-7.1-29.9-14.3-41.4-25.9c-11.6-11.6-19.2-28.5-15.2-44.4"/>
	<path class="st5" d="M596.6,310.8c-1.2-16.9-6.4-33.3-15.1-47.9c-6.3-10.5-15.3-20.3-27.3-22.7s-26.3,6.3-25.8,18.4
		c-13.2-8.5-28.4,13.6-42.9,8c-71.7-26.9-133.3,15.5-145.6,25.2c-26.6,20.9,44.9,29.7,25.6,57.4c-7,10-9.9,22.3-16.3,32.6
		c-7,11-31.3-13.2-41.7-5.2l-27.8,4.7C151.9,423.1,114,628.5,114,733.1c0,7.5,0.6,15.8,6.3,20.7c6.1,5.1,14.2,1,16.1-5.7
		c21.8,30.5,2.5,59.2,6.1,94.2l2.6,24.9c2.7,25.6,6.2,67,38.1,75c4.4-1.3,8-4.2,10.2-8.2c1.7,10.1,4.5,20.8,12.4,27.2
		s22.4,5.2,25.6-4.4c3.1,16.5,22.6,27.8,38.4,22.4c6.3,12.2,8.6,26.4,16.7,37.5c8.1,11.1,26.3,16.8,35.2,6.3
		c8.2-9.9,1.8-24.6-3-36.5c2.6-26.3-1.3-15.7,8.4-44.1c8.4,45.8,9,53.6,47.4,80c8.5,5.8,21.3,9.5,27.9,1.7
		c6.5-7.6,87.2-29.8,82.5-38.5c-27.4-51.4-124.4-99.3-118.1-157.2c3.5-31.3,12.1-62.3,10.8-93.8c-2.7-62.4-43.3-115.9-82.3-164.7
		c70.2-34.3,126.8-90.5,185.9-141.8c10.7-9.2,22.4-18.7,36.4-20c10.7-1,21.2,3,31.8,5.2c23.9,5,48.7,1.1,69.9-10.9"/>
	<path class="st7" d="M904.1,791.6c-4.2,140.3-141.6,218-306.9,213.1s-296-90.5-291.9-230.9s145.1-315.2,310.4-310.4
		C781.1,468.2,908.3,651.2,904.1,791.6z"/>
	
		<ellipse transform="matrix(2.948668e-02 -0.9996 0.9996 2.948668e-02 -453.7902 1064.5403)" class="st7" cx="321.3" cy="766" rx="83.6" ry="73.8"/>
	
		<ellipse transform="matrix(2.948668e-02 -0.9996 0.9996 2.948668e-02 70.8126 1637.9498)" class="st7" cx="878.9" cy="782.5" rx="83.6" ry="73.8"/>
	
		<ellipse transform="matrix(2.948668e-02 -0.9996 0.9996 2.948668e-02 -316.5566 1246.5675)" class="st5" cx="483.7" cy="786.3" rx="47.5" ry="47.5"/>
	
		<ellipse transform="matrix(2.948668e-02 -0.9996 0.9996 2.948668e-02 -85.1858 1499.2169)" class="st5" cx="729.5" cy="793.5" rx="47.5" ry="47.5"/>
	<path class="st7" d="M444.5,338.6c-50.6,30-108.3,77.4-137.1,76.9c-41.6-0.7-27.5-104.5-15.1-162s38.5-70.5,80.2-36.4
		C419.4,255.6,478,318.7,444.5,338.6z"/>
	<path class="st8" d="M426.1,346.2c-35.2,20.9-75.4,53.9-95.5,53.5c-28.9-0.5-19.2-72.8-10.5-112.8c8.6-40,26.8-49.1,55.8-25.3
		C408.7,288.5,449.4,332.4,426.1,346.2z"/>
	<path class="st7" d="M739.2,350.3c50.6,30,108.3,77.4,137.1,76.9c41.6-0.7,27.5-104.5,15.1-162s-38.5-70.5-80.2-36.4
		C764.3,267.4,705.8,330.5,739.2,350.3z"/>
	<path class="st8" d="M757.6,358c35.2,20.9,75.4,53.9,95.5,53.5c28.9-0.5,19.2-72.8,10.5-112.8s-26.8-49.1-55.8-25.3
		C775.1,300.3,734.3,344.2,757.6,358z"/>
	<path class="st5" d="M1005.9,971.5l-17.8-94.1l-1.3-20.3c-1.2-18-2.4-36.1-3.7-54.1c-2-25.2-4.7-50.3-9.7-75.1
		c-11.8-59-37.3-116.2-78.6-160c-39.6-42.1-94.7-70.9-152.3-73.9l-222-142.4C367.4,418.2,243,548.4,183.7,704.5
		c-3.6,9.4-7,19.7-4.5,29.4s13.4,18,22.6,13.9c-1.6,21.7,1,43.6,7.5,64.4c4.4,13.9,16.5,30.1,30,24.5c-1.3,14.7,1.4,29.3,7.8,42.5
		c3.3,6.7,8.1,13.4,15.2,15.5s16.5-2.5,16.5-10c1.5,13.7,6.2,28.2,17.6,36.1c11.4,7.9,30.2,5,34.9-7.9c1.8-5.2,1.2-10.9,0.6-16.4
		c-4.4-43.3,19.1-12,27.3-54.7c1.8,6.4,5,12.4,9.3,17.5c7.8,8.7,21.4,13,31.5,7.1c11.5-6.9,13.1-23,9.9-36s-20.6-100.2-20.8-113.5
		c-0.1-7.1,1.6-14,1.9-21c0.5-12.6,7.3-14.3,6.7-27c-0.1-1.9-0.1-3.7,0-5.6c2.4-4.8,4.8-9.5,7.4-14.2
		c51.8-119.4,90.4-177.9,167.4-162.3c12.3,1.5,5.6,1.2,19.7,2.1c17.8-12.2,53.2-8.7,71.5,2.6c18.3,11.2,31.3,29.6,42,48.2
		c23.3,41,27.7,43.5,33.6,90.3c-3,9.5,4.8,30.4,7.2,40.2c2.4,9.7,12.3,18.3,22,15.5c-8.7,10.7-0.3,28.8,13.1,32.4
		c13.4,3.6,30.8,4.6,39.1-6.5c5.1-7,5.4-24.5,3-33s-12.1-14.8-20-11.2c4.3-9.3,8.7-19.3,7.1-29.3c-1.7-10.9-11.6-15.6-20.3-18.4
		c2.4-3.5,5.6-7.2,7.4-11c2.4-5.1,2.7-11.7-0.9-16.1c-1.2-1.4-2.7-2.6-3.5-4.2c-1.7-3-1.1-6.7-0.5-10.2c0.1-1-42.6-1.9-42.5-2.9
		c35.8,19.2,63.5,53,79.6,90.7c19.6,46,66.4,97.3,63.9,147.2s-11.1,99.4-15.6,149.2c-1.1,12-1.5,25.4,6.4,34.5
		c8.4,9.5,22.7,10.5,32.2,2.1c4.4-3.9,7.2-9.3,7.7-15.2c0.6-7.7-2.6-15.3-2-22.9c0.4-6.1,3.1-11.8,4.4-17.8
		c4.5-21.4-9.1-45.1,0.5-64.8c18.4,27.1,28.3,59.2,28.1,92.1c-0.1,8-0.7,16.2,1.6,23.9c2.4,7.7,20.2,14.9,28.3,15.5L1005.9,971.5z"
		/>
	<polygon class="st9" points="513.2,317.6 680.2,324 702.7,105.5 639.6,226.5 609.6,108.8 561.4,223.3 510,107.7 	"/>
</g>
<title>Artboard 85</title>
<g>
	<path class="st5" d="M449.7,660.5c0.3-1,0.7-1.8,1.1-2.7s1-1.6,1.4-2.5c1-1.6,2.1-3.1,3.4-4.6c2.6-2.9,5.6-5.2,8.9-7.4
		c3.3-2,7-3.5,10.8-4.6c1.9-0.5,3.9-1,5.8-1.2c1.9-0.3,4-0.3,5.9-0.4c7.9,0,15.8,2.1,22.5,6.2c3.3,2,6.3,4.5,8.9,7.4
		c1.3,1.4,2.5,2.9,3.4,4.6c0.5,0.9,1,1.6,1.4,2.5s0.9,1.7,1.1,2.7l-0.6,0.6c-2.5-2.2-5.1-4.4-8-6.1c-2.9-1.8-5.8-3.3-9-4.6
		c-6.2-2.6-13-3.9-19.6-3.7c-1.7,0-3.3,0-5,0.2c-1.7,0.1-3.3,0.4-4.9,0.6c-3.3,0.6-6.5,1.6-9.6,2.9s-6.1,2.8-8.9,4.6
		c-2.9,1.8-5.6,3.7-8,6.1L449.7,660.5z"/>
</g>
<g>
	<path class="st5" d="M759.2,661.1c-7.2-2.2-13.3-4-19.3-5.2c-3-0.5-5.9-1-8.8-1.3c-0.7,0-1.4-0.1-2.1-0.2c-0.7-0.1-1.4-0.1-2.1-0.1
		c-1.4-0.1-2.9-0.1-4.3-0.1c-0.7-0.1-1.4,0-2.1,0s-1.4,0-2.1,0.1l-2.1,0.1c-0.7,0-1.4,0.2-2.1,0.2c-2.9,0.3-5.8,0.6-8.8,1.3
		c-6,1.2-12.1,3-19.3,5.2l-0.6-0.6c2.5-2.5,5-4.7,7.9-6.6s5.9-3.5,9.1-4.9c6.3-2.7,13.3-4.2,20.2-4.2c1.7,0.1,3.4,0.1,5.1,0.3
		c1.7,0.1,3.4,0.4,5.1,0.7c3.4,0.7,6.7,1.7,9.9,3.1c3.2,1.4,6.2,3,9.1,4.9s5.6,4.2,7.9,6.6L759.2,661.1z"/>
</g>
<path class="st5" d="M443.6,778c-4.5-4-10.7-10.3-16.1-19.3c-5.7-9.6-8.3-18.5-9.6-24.6c5.3,4.2,14.7,10.6,27.8,13.9
	c8.2,2.1,15.5,2.4,20.9,2.1C458.9,759.4,451.2,768.7,443.6,778z"/>
<path class="st5" d="M766.4,778c4.5-4,10.7-10.3,16.1-19.3c5.7-9.6,8.3-18.5,9.6-24.6c-5.3,4.2-14.7,10.6-27.8,13.9
	c-8.2,2.1-15.5,2.4-20.9,2.1C751.1,759.4,758.7,768.7,766.4,778z"/>
<circle class="st5" cx="606.5" cy="880.5" r="33.5"/>
<path class="st10" d="M630.5,870.5c-4.2-8.9-13.3-15.1-23.8-15.1s-19.6,6.2-23.8,15.1H630.5z"/>
<circle class="st10" cx="498.2" cy="767.2" r="13.2"/>
<circle class="st10" cx="744.2" cy="773.2" r="13.2"/>
<circle class="st10" cx="727" cy="791" r="7.3"/>
<circle class="st10" cx="480" cy="784" r="7.3"/>
</svg>
