<svg xmlns="http://www.w3.org/2000/svg" viewBox="0 0 1200 1200"><defs><style>.cls-1,.cls-4,.cls-7{fill:none;}.cls-1{stroke:#fff;stroke-width:24px;}.cls-2{fill:#f2b3ff;}.cls-3,.cls-5{fill:#fc9cff;}.cls-3,.cls-4,.cls-7{stroke:#433051;stroke-miterlimit:10;}.cls-3,.cls-4{stroke-width:20.31px;}.cls-6{fill:#433051;}.cls-7{stroke-width:15.51px;}</style></defs><title>Artboard 135</title><g id="Layer_2" data-name="Layer 2"><path class="cls-1" d="M608.73,221.08c-240.25,0-435,151-435,337.22,0,122.23,83.89,229.28,209.48,288.42a192.23,192.23,0,0,1-13.3,52.83c-19,46.38-51,73-66,84a218.32,218.32,0,0,0,102-30c35.56-21.11,58.86-49,73.77-73.11a552.26,552.26,0,0,0,129.08,15.09c240.25,0,435-151,435-337.22S849,221.08,608.73,221.08Z"/><path class="cls-1" d="M508.33,390.26c.1,8.93,10.47,48,41.22,78.77,19.2,19.22,42.32,26.22,53,28.88,7.83-1,35-5.43,56.18-28.88,29.3-32.39,37.44-73.67,36.51-78.77Z"/><line class="cls-1" x1="601.03" y1="496.06" x2="602.69" y2="599.65"/><path class="cls-1" d="M726,656.82C735.1,733.3,674.55,799,604.52,799,535,799,474.79,734.1,483,658.11a182.68,182.68,0,0,0,120.21-54.29,186.58,186.58,0,0,0,122.79,53Z"/><path class="cls-1" d="M606.57,595.77c-3.33,4.81-42.26,59.09-112.63,59.09-5.85,0-72.63-1.18-112.63-59.09"/><path class="cls-1" d="M614.92,601.54c-1.94,2.59-3.82,4.8-5.79,7s-4,4.35-6.05,6.41a161.75,161.75,0,0,1-13,11.68,156.71,156.71,0,0,1-29.25,18.78,140.32,140.32,0,0,1-32.68,11.47l-2.11.47-2.13.38c-1.42.24-2.83.52-4.26.74-2.86.35-5.7.81-8.57,1a144.27,144.27,0,0,1-17.15.45c-3-.12-5.8-.4-8.64-.75s-5.64-.78-8.42-1.3a156.78,156.78,0,0,1-16.47-4,151.54,151.54,0,0,1-31-13,135.18,135.18,0,0,1-27-19.67l-1.53-1.42-1.46-1.48c-1-1-2-2-2.91-3-1.84-2.08-3.75-4.07-5.46-6.25a139.26,139.26,0,0,1-9.74-13.36A138.59,138.59,0,0,0,392,608.29c1.85,2,3.9,3.84,5.85,5.74,1,.92,2.06,1.8,3.08,2.7l1.54,1.34,1.6,1.27a131.37,131.37,0,0,0,27.62,17.06,145.2,145.2,0,0,0,30.61,10.15,148.5,148.5,0,0,0,15.86,2.54,118.07,118.07,0,0,0,15.79.69,133.45,133.45,0,0,0,15.75-1.64c2.61-.36,5.17-1,7.74-1.5,1.28-.3,2.54-.65,3.81-1l1.9-.49,1.88-.58A126.34,126.34,0,0,0,553.59,632a140.22,140.22,0,0,0,24.83-18.78A143.35,143.35,0,0,0,589.13,602c1.69-1.95,3.29-4,4.83-6s3-4.13,4.25-6Z"/><path class="cls-1" d="M600.29,597.06c3.33,4.81,42.26,59.09,112.63,59.09,5.85,0,72.63-1.18,112.63-59.09"/><path class="cls-1" d="M608.64,591.29c1.21,1.92,2.73,4,4.25,6s3.15,4,4.83,6a143.37,143.37,0,0,0,10.71,11.23,140.23,140.23,0,0,0,24.83,18.78,126.35,126.35,0,0,0,28.58,12.57l1.88.58,1.9.49c1.27.32,2.54.67,3.81,1,2.57.51,5.13,1.14,7.74,1.5a133.43,133.43,0,0,0,15.75,1.64,118.07,118.07,0,0,0,15.79-.69,148.53,148.53,0,0,0,15.86-2.54,145.21,145.21,0,0,0,30.61-10.15,131.36,131.36,0,0,0,27.62-17.06l1.6-1.27,1.54-1.34c1-.9,2.07-1.78,3.08-2.7,2-1.9,4-3.72,5.85-5.74a138.57,138.57,0,0,0,10.68-12.52,139.25,139.25,0,0,1-9.74,13.36c-1.71,2.18-3.62,4.18-5.46,6.25-1,1-1.94,2-2.91,3L806,621.13l-1.53,1.42a135.18,135.18,0,0,1-27,19.67,151.54,151.54,0,0,1-31,13,156.72,156.72,0,0,1-16.47,4c-2.78.53-5.59.94-8.42,1.3s-5.65.63-8.64.75a144.27,144.27,0,0,1-17.15-.45c-2.87-.18-5.71-.64-8.57-1-1.42-.22-2.84-.49-4.26-.74l-2.13-.38-2.11-.47A140.32,140.32,0,0,1,646,646.73,156.7,156.7,0,0,1,616.78,628a161.76,161.76,0,0,1-13-11.68c-2.08-2.06-4.08-4.2-6.05-6.41s-3.85-4.44-5.79-7Z"/><path class="cls-1" d="M483,655.53c-8.23,76,52,140.84,121.5,140.89,70,0,130.57-65.7,121.5-142.18"/><line class="cls-1" x1="446.56" y1="478.68" x2="311.54" y2="427.68"/><polygon class="cls-1" points="442.97 488.19 311.54 427.68 450.15 469.19 442.97 488.19"/><line class="cls-1" x1="440.88" y1="530.08" x2="297.22" y2="516.29"/><polygon class="cls-1" points="439.91 540.18 297.22 516.29 441.85 519.97 439.91 540.18"/><line class="cls-1" x1="744.22" y1="478.68" x2="879.23" y2="427.68"/><polygon class="cls-1" points="740.63 469.19 879.23 427.68 747.81 488.19 740.63 469.19"/><line class="cls-1" x1="749.89" y1="530.08" x2="893.56" y2="516.29"/><polygon class="cls-1" points="748.92 519.97 893.56 516.29 750.86 540.18 748.92 519.97"/><path class="cls-2" d="M608.73,221.08c-240.25,0-435,151-435,337.22,0,122.23,83.89,229.28,209.48,288.42a192.23,192.23,0,0,1-13.3,52.83c-19,46.38-51,73-66,84a218.32,218.32,0,0,0,102-30c35.56-21.11,58.86-49,73.77-73.11a552.26,552.26,0,0,0,129.08,15.09c240.25,0,435-151,435-337.22S849,221.08,608.73,221.08Z"/><path class="cls-3" d="M508.33,390.26c.1,8.93,10.47,48,41.22,78.77,19.2,19.22,42.32,26.22,53,28.88,7.83-1,35-5.43,56.18-28.88,29.3-32.39,37.44-73.67,36.51-78.77Z"/><line class="cls-4" x1="601.03" y1="496.06" x2="602.69" y2="599.65"/><path class="cls-5" d="M726,656.82C735.1,733.3,674.55,799,604.52,799,535,799,474.79,734.1,483,658.11a182.68,182.68,0,0,0,120.21-54.29,186.58,186.58,0,0,0,122.79,53Z"/><path class="cls-6" d="M614.92,601.54c-1.94,2.59-3.82,4.8-5.79,7s-4,4.35-6.05,6.41a161.75,161.75,0,0,1-13,11.68,156.71,156.71,0,0,1-29.25,18.78,140.32,140.32,0,0,1-32.68,11.47l-2.11.47-2.13.38c-1.42.24-2.83.52-4.26.74-2.86.35-5.7.81-8.57,1a144.27,144.27,0,0,1-17.15.45c-3-.12-5.8-.4-8.64-.75s-5.64-.78-8.42-1.3a156.78,156.78,0,0,1-16.47-4,151.54,151.54,0,0,1-31-13,135.18,135.18,0,0,1-27-19.67l-1.53-1.42-1.46-1.48c-1-1-2-2-2.91-3-1.84-2.08-3.75-4.07-5.46-6.25a139.26,139.26,0,0,1-9.74-13.36A138.59,138.59,0,0,0,392,608.29c1.85,2,3.9,3.84,5.85,5.74,1,.92,2.06,1.8,3.08,2.7l1.54,1.34,1.6,1.27a131.37,131.37,0,0,0,27.62,17.06,145.2,145.2,0,0,0,30.61,10.15,148.5,148.5,0,0,0,15.86,2.54,118.07,118.07,0,0,0,15.79.69,133.45,133.45,0,0,0,15.75-1.64c2.61-.36,5.17-1,7.74-1.5,1.28-.3,2.54-.65,3.81-1l1.9-.49,1.88-.58A126.34,126.34,0,0,0,553.59,632a140.22,140.22,0,0,0,24.83-18.78A143.35,143.35,0,0,0,589.13,602c1.69-1.95,3.29-4,4.83-6s3-4.13,4.25-6Z"/><path class="cls-6" d="M608.64,591.29c1.21,1.92,2.73,4,4.25,6s3.15,4,4.83,6a143.37,143.37,0,0,0,10.71,11.23,140.23,140.23,0,0,0,24.83,18.78,126.35,126.35,0,0,0,28.58,12.57l1.88.58,1.9.49c1.27.32,2.54.67,3.81,1,2.57.51,5.13,1.14,7.74,1.5a133.43,133.43,0,0,0,15.75,1.64,118.07,118.07,0,0,0,15.79-.69,148.53,148.53,0,0,0,15.86-2.54,145.21,145.21,0,0,0,30.61-10.15,131.36,131.36,0,0,0,27.62-17.06l1.6-1.27,1.54-1.34c1-.9,2.07-1.78,3.08-2.7,2-1.9,4-3.72,5.85-5.74a138.57,138.57,0,0,0,10.68-12.52,139.25,139.25,0,0,1-9.74,13.36c-1.71,2.18-3.62,4.18-5.46,6.25-1,1-1.94,2-2.91,3L806,621.13l-1.53,1.42a135.18,135.18,0,0,1-27,19.67,151.54,151.54,0,0,1-31,13,156.72,156.72,0,0,1-16.47,4c-2.78.53-5.59.94-8.42,1.3s-5.65.63-8.64.75a144.27,144.27,0,0,1-17.15-.45c-2.87-.18-5.71-.64-8.57-1-1.42-.22-2.84-.49-4.26-.74l-2.13-.38-2.11-.47A140.32,140.32,0,0,1,646,646.73,156.7,156.7,0,0,1,616.78,628a161.76,161.76,0,0,1-13-11.68c-2.08-2.06-4.08-4.2-6.05-6.41s-3.85-4.44-5.79-7Z"/><path class="cls-7" d="M483,655.53c-8.23,76,52,140.84,121.5,140.89,70,0,130.57-65.7,121.5-142.18"/><polygon class="cls-6" points="442.97 488.19 311.54 427.68 450.15 469.19 442.97 488.19"/><polygon class="cls-6" points="439.91 540.18 297.22 516.29 441.85 519.97 439.91 540.18"/><polygon class="cls-6" points="740.63 469.19 879.23 427.68 747.81 488.19 740.63 469.19"/><polygon class="cls-6" points="748.92 519.97 893.56 516.29 750.86 540.18 748.92 519.97"/></g></svg>