<?xml version="1.0" encoding="utf-8"?>
<!-- Generator: Adobe Illustrator 23.0.2, SVG Export Plug-In . SVG Version: 6.00 Build 0)  -->
<svg version="1.1" id="Layer_1" xmlns="http://www.w3.org/2000/svg" xmlns:xlink="http://www.w3.org/1999/xlink" x="0px" y="0px"
	 viewBox="0 0 1200 1200" style="enable-background:new 0 0 1200 1200;" xml:space="preserve">
<style type="text/css">
	.st0{fill:#FFF173;}
	.st1{fill:none;stroke:#FFFFFF;stroke-width:20.7332;}
	.st2{fill:#433051;stroke:#FFFFFF;stroke-width:20.7332;}
	.st3{fill:#433051;}
	.st4{fill:none;stroke:#433051;stroke-width:7.7749;stroke-miterlimit:10;}
</style>
<title>Artboard 85</title>
<g>
	<g>
		<path class="st0" d="M457,159.7c-138.7,43.3-216.1,191-172.7,329.8C323.5,615,488.9,703.3,527.6,827l251.2-78.5
			C738.9,621,825.9,458,786.6,332.5C743.4,193.7,595.7,116.4,457,159.7z"/>
		<path class="st1" d="M457,159.7c-138.7,43.3-216.1,191-172.7,329.8C323.5,615,488.9,703.3,527.6,827l251.2-78.5
			C738.9,621,825.9,458,786.6,332.5C743.4,193.7,595.7,116.4,457,159.7z"/>
	</g>
	<path class="st2" d="M827.9,905.5c5.4,17.3-4.2,35.8-21.6,41.2l-5.8,1.8c-1.5,40.6-27.9,77.7-68.8,90.5
		c-41,12.8-83.7-2.6-108.1-35.2l-5.8,1.8c-17.3,5.4-35.8-4.2-41.2-21.6c-5.4-17.3,4.2-35.8,21.6-41.2l188.4-58.9
		C804,878.5,822.4,888.1,827.9,905.5z"/>
	<path class="st2" d="M798.4,811.3c5.4,17.3-4.2,35.8-21.6,41.2l-188.3,58.8c-17.3,5.4-35.8-4.2-41.2-21.6
		c-5.4-17.4,4.2-35.8,21.6-41.2l188.4-58.9C774.6,784.2,793,794,798.4,811.3z"/>
	
		<ellipse transform="matrix(0.8705 -0.4921 0.4921 0.8705 -159.6476 289.3978)" class="st3" cx="470.1" cy="448.1" rx="38.4" ry="38.4"/>
	
		<ellipse transform="matrix(5.555318e-02 -0.9985 0.9985 5.555318e-02 187.0292 993.5101)" class="st3" cx="618.7" cy="397.9" rx="38.4" ry="38.4"/>
	<path class="st4" d="M530.1,524c0,0,45.4-8.3,33.6-45.9"/>
	<path class="st4" d="M617.5,496.7c0,0-42,19-53.8-18.6"/>
	<line class="st4" x1="372.1" y1="505.9" x2="443.7" y2="508.5"/>
	<line class="st4" x1="405.8" y1="579.4" x2="459.7" y2="537.2"/>
	<line class="st4" x1="723.4" y1="396.1" x2="666.1" y2="439"/>
	<line class="st4" x1="737.6" y1="475.7" x2="669.2" y2="471.8"/>
	<g>
		<path class="st0" d="M457,159.7c-138.7,43.3-216.1,191-172.7,329.8C323.5,615,488.9,703.3,527.6,827l251.2-78.5
			C738.9,621,825.9,458,786.6,332.5C743.4,193.7,595.7,116.4,457,159.7z"/>
	</g>
	<path class="st3" d="M827.9,905.5c5.4,17.3-4.2,35.8-21.6,41.2l-5.8,1.8c-1.5,40.6-27.9,77.7-68.8,90.5
		c-41,12.8-83.7-2.6-108.1-35.2l-5.8,1.8c-17.3,5.4-35.8-4.2-41.2-21.6c-5.4-17.3,4.2-35.8,21.6-41.2l188.4-58.9
		C804,878.5,822.4,888.1,827.9,905.5z"/>
	<path class="st3" d="M798.4,811.3c5.4,17.3-4.2,35.8-21.6,41.2l-188.3,58.8c-17.3,5.4-35.8-4.2-41.2-21.6
		c-5.4-17.4,4.2-35.8,21.6-41.2l188.4-58.9C774.6,784.2,793,794,798.4,811.3z"/>
	
		<ellipse transform="matrix(0.8705 -0.4921 0.4921 0.8705 -159.6476 289.3978)" class="st3" cx="470.1" cy="448.1" rx="38.4" ry="38.4"/>
	
		<ellipse transform="matrix(5.555318e-02 -0.9985 0.9985 5.555318e-02 187.0292 993.5101)" class="st3" cx="618.7" cy="397.9" rx="38.4" ry="38.4"/>
	<path class="st4" d="M530.1,524c0,0,45.4-8.3,33.6-45.9"/>
	<path class="st4" d="M617.5,496.7c0,0-42,19-53.8-18.6"/>
	<line class="st4" x1="372.1" y1="505.9" x2="443.7" y2="508.5"/>
	<line class="st4" x1="405.8" y1="579.4" x2="459.7" y2="537.2"/>
	<line class="st4" x1="723.4" y1="396.1" x2="666.1" y2="439"/>
	<line class="st4" x1="737.6" y1="475.7" x2="669.2" y2="471.8"/>
</g>
</svg>
