<?xml version="1.0" encoding="utf-8"?>
<!-- Generator: Adobe Illustrator 23.0.2, SVG Export Plug-In . SVG Version: 6.00 Build 0)  -->
<svg version="1.1" id="Layer_1" xmlns="http://www.w3.org/2000/svg" xmlns:xlink="http://www.w3.org/1999/xlink" x="0px" y="0px"
	 viewBox="0 0 1200 1200" style="enable-background:new 0 0 1200 1200;" xml:space="preserve">
<style type="text/css">
	.st0{fill:#FFF173;}
	.st1{fill:none;stroke:#FFFFFF;stroke-width:24;}
	.st2{fill:#433051;stroke:#FFFFFF;stroke-width:24;}
	.st3{fill:#433051;}
	.st4{fill:none;stroke:#433051;stroke-width:9;stroke-miterlimit:10;}
</style>
<title>Artboard 85</title>
<g>
	<g>
		<path class="st0" d="M600,66.6c-168.2,0-304.7,136.4-304.7,304.7c0,152.3,152.3,307,152.3,457h304.7
			c0-154.7,152.3-304.7,152.3-457C904.7,203,768.2,66.6,600,66.6z"/>
		<path class="st1" d="M600,66.6c-168.2,0-304.7,136.4-304.7,304.7c0,152.3,152.3,307,152.3,457h304.7
			c0-154.7,152.3-304.7,152.3-457C904.7,203,768.2,66.6,600,66.6z"/>
	</g>
	<path class="st2" d="M752.3,1018.7c0,21-17,38.1-38.1,38.1h-7c-15.7,44.3-57.6,76.2-107.3,76.2c-49.7,0-91.6-31.8-107.3-76.2h-7
		c-21,0-38.1-17-38.1-38.1c0-21,17-38.1,38.1-38.1h228.5C735.3,980.6,752.3,997.6,752.3,1018.7z"/>
	<path class="st2" d="M752.3,904.4c0,21-17,38.1-38.1,38.1H485.8c-21,0-38.1-17-38.1-38.1s17-38.1,38.1-38.1h228.5
		C735.3,866.3,752.3,883.4,752.3,904.4z"/>
	
		<ellipse transform="matrix(0.9314 -0.364 0.364 0.9314 -106.5709 214.1998)" class="st3" cx="515" cy="389.8" rx="44.4" ry="44.4"/>
	
		<ellipse transform="matrix(0.3508 -0.9364 0.9364 0.3508 91.0184 902.5477)" class="st3" cx="696.5" cy="385.6" rx="44.4" ry="44.4"/>
	<path class="st4" d="M555,494.4c0,0,53,6.5,53-39.1"/>
	<path class="st4" d="M661,494.4c0,0-53,6.5-53-39.1"/>
	<line class="st4" x1="386.7" y1="419.8" x2="464.9" y2="447.4"/>
	<line class="st4" x1="398.5" y1="512.7" x2="472.7" y2="484.7"/>
	<line class="st4" x1="812.7" y1="419.8" x2="734.6" y2="447.4"/>
	<line class="st4" x1="801" y1="512.7" x2="726.7" y2="484.7"/>
	<g>
		<path class="st0" d="M600,66.6c-168.2,0-304.7,136.4-304.7,304.7c0,152.3,152.3,307,152.3,457h304.7
			c0-154.7,152.3-304.7,152.3-457C904.7,203,768.2,66.6,600,66.6z"/>
	</g>
	<path class="st3" d="M752.3,1018.7c0,21-17,38.1-38.1,38.1h-7c-15.7,44.3-57.6,76.2-107.3,76.2c-49.7,0-91.6-31.8-107.3-76.2h-7
		c-21,0-38.1-17-38.1-38.1c0-21,17-38.1,38.1-38.1h228.5C735.3,980.6,752.3,997.6,752.3,1018.7z"/>
	<path class="st3" d="M752.3,904.4c0,21-17,38.1-38.1,38.1H485.8c-21,0-38.1-17-38.1-38.1s17-38.1,38.1-38.1h228.5
		C735.3,866.3,752.3,883.4,752.3,904.4z"/>
	
		<ellipse transform="matrix(0.9314 -0.364 0.364 0.9314 -106.5709 214.1998)" class="st3" cx="515" cy="389.8" rx="44.4" ry="44.4"/>
	
		<ellipse transform="matrix(0.3508 -0.9364 0.9364 0.3508 91.0184 902.5477)" class="st3" cx="696.5" cy="385.6" rx="44.4" ry="44.4"/>
	<path class="st4" d="M555,494.4c0,0,53,6.5,53-39.1"/>
	<path class="st4" d="M661,494.4c0,0-53,6.5-53-39.1"/>
	<line class="st4" x1="386.7" y1="419.8" x2="464.9" y2="447.4"/>
	<line class="st4" x1="398.5" y1="512.7" x2="472.7" y2="484.7"/>
	<line class="st4" x1="812.7" y1="419.8" x2="734.6" y2="447.4"/>
	<line class="st4" x1="801" y1="512.7" x2="726.7" y2="484.7"/>
</g>
</svg>
