<svg xmlns="http://www.w3.org/2000/svg" viewBox="0 0 1200 1200"><defs><style>.cls-1{fill:none;stroke:#fff;stroke-width:24px;}.cls-2{fill:#fff;}.cls-2,.cls-3{stroke:#cfb0ea;stroke-miterlimit:10;stroke-width:9.5px;}.cls-3{fill:#cfa1ff;}.cls-4{fill:#433051;}.cls-5{fill:#fff173;}.cls-6{fill:#ffa6a6;}</style></defs><title>Artboard 145</title><g id="Layer_2" data-name="Layer 2"><path class="cls-1" d="M559.37,163.6,163.93,446.25l894.27-3.56L670.78,164.23a125.25,125.25,0,0,0-111.4-.63Z"/><polygon class="cls-1" points="1086.62 894.35 141.23 894.35 134.1 443.03 1086.62 443.03 1086.62 894.35"/><ellipse class="cls-1" cx="592.55" cy="629.5" rx="325.42" ry="248.22"/><circle class="cls-1" cx="712.5" cy="610.49" r="96.2"/><ellipse class="cls-1" cx="674.5" cy="614.06" rx="27.32" ry="68.89"/><circle class="cls-1" cx="486.84" cy="610.49" r="96.2"/><polygon class="cls-1" points="956.39 961.76 134.63 961.76 133.44 458.3 956.39 961.76"/><polygon class="cls-1" points="253.39 961.76 1098.92 961.76 1087.04 454.73 253.39 961.76"/><path class="cls-1" d="M994,960.86H224.37L566.42,728.07a64.57,64.57,0,0,1,73.65-.69C758,804.41,876,883.82,994,960.86Z"/><path class="cls-1" d="M506.42,398.44c29.44,61.54-35.93,72-87.41,96.63s-93.32,101.6-122.76,40.06-35.33-238.28,16.15-262.91S477,336.9,506.42,398.44Z"/><path class="cls-1" d="M448.67,402.93c15.88,33.2-19.38,38.85-47.16,52.13s-50.35,54.81-66.23,21.61S316.23,348.13,344,334.84,432.79,369.74,448.67,402.93Z"/><path class="cls-1" d="M696.87,409.13c-29.44,61.54,35.93,72,87.41,96.63S877.6,607.36,907,545.82s35.33-238.28-16.15-262.91S726.31,347.59,696.87,409.13Z"/><path class="cls-1" d="M754.61,413.62c-15.88,33.2,19.38,38.85,47.16,52.13s50.35,54.81,66.23,21.61,19.06-128.55-8.71-141.84S770.5,380.43,754.61,413.62Z"/><ellipse class="cls-1" cx="524.85" cy="614.06" rx="27.32" ry="68.89"/><path class="cls-2" d="M559.37,163.6,163.93,446.25l894.27-3.56L670.78,164.23a125.25,125.25,0,0,0-111.4-.63Z"/><polygon class="cls-3" points="1086.62 894.35 141.23 894.35 134.1 443.03 1086.62 443.03 1086.62 894.35"/><ellipse class="cls-4" cx="592.55" cy="629.5" rx="325.42" ry="248.22"/><circle class="cls-5" cx="712.5" cy="610.49" r="96.2"/><ellipse class="cls-4" cx="674.5" cy="614.06" rx="27.32" ry="68.89"/><circle class="cls-5" cx="486.84" cy="610.49" r="96.2"/><polygon class="cls-2" points="956.39 961.76 134.63 961.76 133.44 458.3 956.39 961.76"/><polygon class="cls-2" points="253.39 961.76 1098.92 961.76 1087.04 454.73 253.39 961.76"/><path class="cls-2" d="M994,960.86H224.37L566.42,728.07a64.57,64.57,0,0,1,73.65-.69C758,804.41,876,883.82,994,960.86Z"/><path class="cls-4" d="M506.42,398.44c29.44,61.54-35.93,72-87.41,96.63s-93.32,101.6-122.76,40.06-35.33-238.28,16.15-262.91S477,336.9,506.42,398.44Z"/><path class="cls-6" d="M448.67,402.93c15.88,33.2-19.38,38.85-47.16,52.13s-50.35,54.81-66.23,21.61S316.23,348.13,344,334.84,432.79,369.74,448.67,402.93Z"/><path class="cls-4" d="M696.87,409.13c-29.44,61.54,35.93,72,87.41,96.63S877.6,607.36,907,545.82s35.33-238.28-16.15-262.91S726.31,347.59,696.87,409.13Z"/><path class="cls-6" d="M754.61,413.62c-15.88,33.2,19.38,38.85,47.16,52.13s50.35,54.81,66.23,21.61,19.06-128.55-8.71-141.84S770.5,380.43,754.61,413.62Z"/><ellipse class="cls-4" cx="524.85" cy="614.06" rx="27.32" ry="68.89"/></g></svg>