<?xml version="1.0" encoding="utf-8"?>
<!-- Generator: Adobe Illustrator 21.1.0, SVG Export Plug-In . SVG Version: 6.00 Build 0)  -->
<svg version="1.1" id="Layer_1" xmlns="http://www.w3.org/2000/svg" xmlns:xlink="http://www.w3.org/1999/xlink" x="0px" y="0px"
	 viewBox="0 0 1200 1200" style="enable-background:new 0 0 1200 1200;" xml:space="preserve">
<style type="text/css">
	.st0{fill:#433051;stroke:#FFFFFF;stroke-width:24;}
	.st1{fill:none;stroke:#FFFFFF;stroke-width:24;}
	.st2{fill:#C97171;}
	.st3{fill:#F2A5A5;}
	.st4{fill:#433051;}
	.st5{fill:#FFA6A6;}
	.st6{fill:#FFFFFF;}
	.st7{fill:none;stroke:#FFF173;stroke-width:9;stroke-miterlimit:10;}
</style>
<g>
	<ellipse class="st0" cx="501.8" cy="506" rx="359.3" ry="291.7"/>
	<path class="st0" d="M1013.3,471.2c43.2,167.9-156,230.6-260.7,213.9c-100.6-16-167.3-131.2-167.3-242.3s131.2-163.1,245-153.1
		C953.2,319.8,1009.7,360.1,1013.3,471.2z"/>
	<path class="st0" d="M765.5,282.2c20.7,46.7-28.6,53.2-67.7,70.4c-39.1,17.2-72.2,74.1-92.9,27.2c-20.7-46.9-21.1-179.2,18-196.7
		S744.9,235.5,765.5,282.2z"/>
	<path class="st0" d="M948.3,345.8c-45.6,23.2-11.5,59.2,8,97.3c19.4,38.1,9.2,103,54.7,79.7c45.6-23.2,129.6-125.6,110.2-163.8
		S993.8,322.6,948.3,345.8z"/>
</g>
<title>Artboard 75</title>
<g id="Layer_2">
	<ellipse class="st1" cx="580.1" cy="605.4" rx="491.2" ry="393.6"/>
	<ellipse class="st1" cx="588" cy="554.8" rx="401.4" ry="271.2"/>
	<ellipse class="st1" cx="524.8" cy="519.3" rx="318.3" ry="258.3"/>
	<path class="st1" d="M1004.5,484.7c3.8,117.6-127,187.7-212.2,174.2c-81.9-13-136.1-106.8-136.1-197.2s75.7-125.9,168.4-117.6
		C924.9,352.9,1001.5,394.3,1004.5,484.7z"/>
	<path class="st1" d="M812.5,347.5c16.4,34.2-20,40.1-48.6,53.8c-28.6,13.7-52,56.6-68.3,22.3s-19.6-132.6,9-146.4
		C733.2,263.4,796.2,313.3,812.5,347.5z"/>
	<path class="st1" d="M780.4,350c8.8,18.5-10.7,21.6-26.3,29c-15.5,7.5-28,30.5-36.9,12c-8.9-18.5-10.6-71.5,4.8-78.9
		C737.4,304.8,771.6,331.5,780.4,350z"/>
	<path class="st1" d="M915.2,377.7c-31.2,21.6-2.5,44.7,15.6,70.8c18.1,26.2,17.1,74.9,48.3,53.2c31.2-21.7,82.8-105.3,64.7-131.5
		C1025.8,344.1,946.5,356.1,915.2,377.7z"/>
	<path class="st1" d="M941.9,395.8c-16.9,11.7-1.3,24.2,8.4,38.2s9.2,40.4,26.1,28.8c16.9-11.6,44.7-56.8,34.9-70.9
		C1001.5,377.8,958.8,384.1,941.9,395.8z"/>
	<path class="st1" d="M730.2,487.6c2.7-1,22.6-7.9,41.8,3.6c14.4,8.6,19.5,22.3,20.7,26.3"/>
	<path class="st1" d="M864.6,537c23.1-17.3,55.7-13.8,74.6,8.1"/>
	<ellipse class="st2" cx="580.1" cy="605.4" rx="491.2" ry="393.6"/>
	<ellipse class="st3" cx="588" cy="554.8" rx="401.4" ry="271.2"/>
	<ellipse class="st4" cx="501.8" cy="506" rx="359.3" ry="291.7"/>
	<path class="st4" d="M1013.3,471.2c43.2,167.9-156,230.6-260.7,213.9c-100.6-16-167.3-131.2-167.3-242.3s131.2-163.1,245-153.1
		C953.2,319.8,1009.7,360.1,1013.3,471.2z"/>
	<path class="st4" d="M765.5,282.2c20.7,46.7-28.6,53.2-67.7,70.4c-39.1,17.2-72.2,74.1-92.9,27.2c-20.7-46.9-21.1-179.2,18-196.7
		S744.9,235.5,765.5,282.2z"/>
	<path class="st5" d="M722.1,284.2c11.1,25.2-15.3,28.7-36.5,38c-21.1,9.3-39,39.9-50.1,14.7c-11.1-25.2-11.3-96.8,9.7-106
		S710.9,259,722.1,284.2z"/>
	<path class="st4" d="M948.3,345.8c-45.6,23.2-11.5,59.2,8,97.3c19.4,38.1,9.2,103,54.7,79.7c45.6-23.2,129.6-125.6,110.2-163.8
		S993.8,322.6,948.3,345.8z"/>
	<path class="st5" d="M980.6,374.8c-24.6,12.5-6.2,31.9,4.3,52.5s4.9,55.6,29.5,43.1c24.6-12.5,70-67.8,59.5-88.3
		C1063.5,361.5,1005.2,362.3,980.6,374.8z"/>
	<circle class="st4" cx="756.5" cy="720.6" r="60.1"/>
	<ellipse transform="matrix(0.7513 -0.66 0.66 0.7513 -233.805 737.8149)" class="st4" cx="862" cy="679.1" rx="60.1" ry="72.8"/>
	<g>
		<path class="st6" d="M301.9,615.9c15.7,15.1,32.7,28.9,51.2,40.2c9.2,5.7,18.8,10.7,28.7,15c9.9,4.4,19.9,8,30.3,10.8
			c5.2,1.3,10.4,2.6,15.6,3.7c5.3,1.1,10.5,2,15.8,2.7s10.6,1.2,16,1.4s10.6,0.3,16,0.3c10.7-0.2,21.4-1.2,31.9-2.8
			c10.5-1.6,21.1-3.9,31.5-6.7c10.4-2.8,20.7-6,31-9.6c10.3-3.5,20.4-7.4,30.6-11.2c10.3-3.8,20.4-7.8,30.9-11.3
			c10.4-3.5,21.1-6.7,32.1-8.7c5.5-1,11.1-1.7,16.7-1.8c5.7-0.2,11.4,0.2,17.1,1.4c5.6,1.3,11,3.5,15.8,6.8
			c4.8,3.3,8.8,7.6,11.9,12.4c3.1,4.8,5.3,10.1,6.9,15.3c1.5,5.4,2.4,10.8,2.9,16.4c0.9,11,0.1,22-1.6,32.8
			c0.9-10.8,1-21.9-0.6-32.6c-0.8-5.4-1.9-10.6-3.7-15.6c-1.7-5.1-4-9.9-7.1-14.1c-3.1-4.2-6.8-7.9-11.2-10.6
			c-4.3-2.8-9.2-4.6-14.3-5.6c-10.2-1.9-20.9-0.4-31.2,1.8c-10.4,2.3-20.6,5.8-30.8,9.6c-10.2,3.7-20.2,7.9-30.4,12
			c-20.2,8.2-40.8,16.1-62.2,21.9c-21.4,5.8-43.5,9.4-65.8,9.4c-5.6,0-11.1-0.2-16.7-0.6c-5.6-0.4-11.1-1.1-16.6-1.9
			c-5.5-0.9-10.9-1.9-16.4-3.1c-5.5-1.2-10.7-2.8-16.1-4.3c-10.6-3.4-21-7.4-30.9-12.4c-9.9-4.9-19.5-10.5-28.6-16.8
			C332.3,647.6,316,632.6,301.9,615.9z"/>
	</g>
	<g>
		<path class="st6" d="M670.1,644.5c-4.1-3.7-8-7.6-11.7-11.5c-3.7-3.9-7.3-8-10.8-12.1c-7-8.2-13.6-16.8-19.7-25.6
			s-11.9-18-16.9-27.6c-2.5-4.8-4.8-9.7-6.9-14.7c-2.1-5-3.9-10.1-5.6-15.2c-6.7-20.4-11-41.6-13.1-62.9c-1.1-10.6-1.4-21.4-1.2-32
			c0.1-5.4,0.5-10.6,1.1-16c0.3-2.7,0.7-5.3,1.1-8c0.5-2.6,1-5.3,1.7-7.8c-0.7,2.6-1.1,5.2-1.4,7.9c-0.4,2.7-0.6,5.3-0.8,8
			c-0.4,5.3-0.5,10.6-0.4,15.9c0.2,10.6,1.1,21.2,2.5,31.7c2.9,21,8.1,41.7,15.4,61.4c7,19.8,17.8,38.1,30.5,54.9
			c6.3,8.4,13,16.5,20.1,24.3c3.5,3.8,7.2,7.7,10.9,11.3s7.6,7.3,11.5,10.5L670.1,644.5z"/>
	</g>
</g>
<circle class="st7" cx="719.6" cy="490.6" r="36.9"/>
<circle class="st7" cx="881.6" cy="529" r="36.9"/>
</svg>
