<svg xmlns="http://www.w3.org/2000/svg" viewBox="0 0 1200 1200"><defs><style>.cls-1{fill:none;stroke:#fff;stroke-width:24px;}.cls-2{fill:#c97171;}.cls-3{fill:#433051;}.cls-4{fill:#f2a5a5;}.cls-5{fill:#fff;}</style></defs><title>Artboard 125</title><g id="Layer_2" data-name="Layer 2"><rect class="cls-1" x="132.01" y="283.1" width="837.55" height="658.51" rx="43.36" ry="43.36"/><path class="cls-1" d="M784.09,392.56c-.75,46.39-81.64,84-133,84s-103,12.39-103-34,25.9-121.41,103-134C783,287,785,335.67,784.09,392.56Z"/><path class="cls-1" d="M928.75,941.61H183c-42.16,1.89-56.44-29.91-49.52-61.53L243.29,433a50.69,50.69,0,0,1,49.52-39.86h733.76a50.69,50.69,0,0,1,49.52,61.53L978.28,901.75A50.69,50.69,0,0,1,928.75,941.61Z"/><rect class="cls-1" x="132.01" y="240.54" width="258.03" height="114.01" rx="28.26" ry="28.26"/><path class="cls-1" d="M891,405c0,55.23-52.83,100-118,100S655,460.23,655,405s-15.12-83.77,48-100C843,269,891,349.77,891,405Z"/><path class="cls-1" d="M777,452c0,30.38-26.42,57-59,57s-59-26.62-59-57-13.58-95,19-95S777,421.62,777,452Z"/><path class="cls-1" d="M917,451c-1.93,30.31-26.42,55-59,55s-59-24.62-59-55-23.58-145,9-145S923,357,917,451Z"/><ellipse class="cls-1" cx="793" cy="441" rx="74" ry="80"/><path class="cls-1" d="M706.53,521.47a46.79,46.79,0,0,0-2.35-35.92"/><path class="cls-1" d="M705.72,521.19a70.9,70.9,0,0,0-1.3-9.27c-.3-1.45-.67-2.86-1.06-4.23s-.76-2.69-1.21-4a16.64,16.64,0,0,0-2-3.65,5.24,5.24,0,0,1-.88-3.68,18.79,18.79,0,0,1,1.17-4.48,34.24,34.24,0,0,1,3-6l1.52-.75a14.36,14.36,0,0,1,6.7,2.49,13.71,13.71,0,0,1,4,4.31,8.23,8.23,0,0,1,1.07,5.34c-.23,1.88-.77,3.74-1,5.52A35.53,35.53,0,0,1,712.84,513a34.43,34.43,0,0,1-5.51,8.69Z"/><path class="cls-1" d="M797.67,537.45a42,42,0,0,0-2.35-35.92"/><path class="cls-1" d="M796.88,537.14a59.93,59.93,0,0,0-1-9.31,63.64,63.64,0,0,0-2.16-8.17,15.44,15.44,0,0,0-2.05-3.58,5.11,5.11,0,0,1-.94-3.59,19.82,19.82,0,0,1,1.05-4.46,38,38,0,0,1,2.77-6.09l1.49-.82a14,14,0,0,1,6.82,2.27,13.65,13.65,0,0,1,4.17,4.29,8.44,8.44,0,0,1,1.2,5.46c-.2,1.93-.73,3.83-.95,5.65a36.87,36.87,0,0,1-1.09,5.35,36.09,36.09,0,0,1-1.92,5,32.38,32.38,0,0,1-5.83,8.6Z"/><path class="cls-1" d="M874.49,515.43a53.89,53.89,0,0,0-2.35-35.92"/><path class="cls-1" d="M873.67,515.2A92.29,92.29,0,0,0,872,506c-.72-2.91-1.51-5.65-2.38-8.27a18,18,0,0,0-2-3.74,5.4,5.4,0,0,1-.83-3.78,17.82,17.82,0,0,1,1.31-4.5,31.09,31.09,0,0,1,3.29-5.85l1.56-.67a14.79,14.79,0,0,1,6.55,2.73,13.81,13.81,0,0,1,3.82,4.32,8,8,0,0,1,.94,5.22c-.27,1.83-.81,3.64-1,5.38a38.36,38.36,0,0,1-2.74,10.05,37.59,37.59,0,0,1-5.13,8.79Z"/><rect class="cls-2" x="132.01" y="283.1" width="837.55" height="658.51" rx="43.36" ry="43.36"/><path class="cls-3" d="M784.09,392.56c-.75,46.39-81.64,84-133,84s-103,12.39-103-34,25.9-121.41,103-134C783,287,785,335.67,784.09,392.56Z"/><path class="cls-4" d="M928.75,941.61H183c-42.16,1.89-56.44-29.91-49.52-61.53L243.29,433a50.69,50.69,0,0,1,49.52-39.86h733.76a50.69,50.69,0,0,1,49.52,61.53L978.28,901.75A50.69,50.69,0,0,1,928.75,941.61Z"/><rect class="cls-2" x="132.01" y="240.54" width="258.03" height="114.01" rx="28.26" ry="28.26"/><path class="cls-3" d="M891,405c0,55.23-52.83,100-118,100S655,460.23,655,405s-15.12-83.77,48-100C843,269,891,349.77,891,405Z"/><path class="cls-3" d="M777,452c0,30.38-26.42,57-59,57s-59-26.62-59-57-13.58-95,19-95S777,421.62,777,452Z"/><path class="cls-3" d="M917,451c-1.93,30.31-26.42,55-59,55s-59-24.62-59-55-23.58-145,9-145S923,357,917,451Z"/><ellipse class="cls-3" cx="793" cy="441" rx="74" ry="80"/><path class="cls-5" d="M705.72,521.19a70.9,70.9,0,0,0-1.3-9.27c-.3-1.45-.67-2.86-1.06-4.23s-.76-2.69-1.21-4a16.64,16.64,0,0,0-2-3.65,5.24,5.24,0,0,1-.88-3.68,18.79,18.79,0,0,1,1.17-4.48,34.24,34.24,0,0,1,3-6l1.52-.75a14.36,14.36,0,0,1,6.7,2.49,13.71,13.71,0,0,1,4,4.31,8.23,8.23,0,0,1,1.07,5.34c-.23,1.88-.77,3.74-1,5.52A35.53,35.53,0,0,1,712.84,513a34.43,34.43,0,0,1-5.51,8.69Z"/><path class="cls-5" d="M796.88,537.14a59.93,59.93,0,0,0-1-9.31,63.64,63.64,0,0,0-2.16-8.17,15.44,15.44,0,0,0-2.05-3.58,5.11,5.11,0,0,1-.94-3.59,19.82,19.82,0,0,1,1.05-4.46,38,38,0,0,1,2.77-6.09l1.49-.82a14,14,0,0,1,6.82,2.27,13.65,13.65,0,0,1,4.17,4.29,8.44,8.44,0,0,1,1.2,5.46c-.2,1.93-.73,3.83-.95,5.65a36.87,36.87,0,0,1-1.09,5.35,36.09,36.09,0,0,1-1.92,5,32.38,32.38,0,0,1-5.83,8.6Z"/><path class="cls-5" d="M873.67,515.2A92.29,92.29,0,0,0,872,506c-.72-2.91-1.51-5.65-2.38-8.27a18,18,0,0,0-2-3.74,5.4,5.4,0,0,1-.83-3.78,17.82,17.82,0,0,1,1.31-4.5,31.09,31.09,0,0,1,3.29-5.85l1.56-.67a14.79,14.79,0,0,1,6.55,2.73,13.81,13.81,0,0,1,3.82,4.32,8,8,0,0,1,.94,5.22c-.27,1.83-.81,3.64-1,5.38a38.36,38.36,0,0,1-2.74,10.05,37.59,37.59,0,0,1-5.13,8.79Z"/></g></svg>