<svg xmlns="http://www.w3.org/2000/svg" viewBox="0 0 1200 1200"><defs><style>.cls-1{fill:none;stroke:#fff;stroke-width:24px;}.cls-2{fill:#fff;}.cls-3{fill:#cfa1ff;stroke:#433051;stroke-miterlimit:10;stroke-width:8px;}.cls-4{fill:#433051;}</style></defs><title>Artboard 95</title><g id="Layer_2" data-name="Layer 2"><polygon class="cls-1" points="975.22 897.8 335.86 1003.2 210.19 190.36 678.63 110.94 871.79 231.38 975.22 897.8"/><polygon class="cls-1" points="690.63 122.94 656.72 249.54 851.79 221.38 690.63 122.94"/><path class="cls-1" d="M691.53,705.45C674.91,774.34,634.09,709,563.22,709s-109.46,64.74-128.31-3.58c-21.38-77.52,57.45-163.95,128.31-163.95S710.25,627.93,691.53,705.45Z"/><ellipse class="cls-1" cx="505.33" cy="444.27" rx="53.46" ry="95.42" transform="translate(-82.22 116.37) rotate(-12.16)"/><ellipse class="cls-1" cx="396.61" cy="533.92" rx="53.46" ry="86.88" transform="translate(-163.72 175.6) rotate(-20.8)"/><ellipse class="cls-1" cx="635.31" cy="445.6" rx="96.78" ry="53.46" transform="translate(65.92 972.83) rotate(-77.84)"/><ellipse class="cls-1" cx="735.4" cy="542.83" rx="86.88" ry="53.46" transform="translate(-68.41 977.98) rotate(-64.86)"/><polygon class="cls-2" points="975.22 897.8 335.86 1003.2 210.19 190.36 678.63 110.94 871.79 231.38 975.22 897.8"/><polygon class="cls-3" points="690.63 122.94 656.72 249.54 851.79 221.38 690.63 122.94"/><path class="cls-4" d="M691.53,705.45C674.91,774.34,634.09,709,563.22,709s-109.46,64.74-128.31-3.58c-21.38-77.52,57.45-163.95,128.31-163.95S710.25,627.93,691.53,705.45Z"/><ellipse class="cls-4" cx="505.33" cy="444.27" rx="53.46" ry="95.42" transform="translate(-82.22 116.37) rotate(-12.16)"/><ellipse class="cls-4" cx="396.61" cy="533.92" rx="53.46" ry="86.88" transform="translate(-163.72 175.6) rotate(-20.8)"/><ellipse class="cls-4" cx="635.31" cy="445.6" rx="96.78" ry="53.46" transform="translate(65.92 972.83) rotate(-77.84)"/><ellipse class="cls-4" cx="735.4" cy="542.83" rx="86.88" ry="53.46" transform="translate(-68.41 977.98) rotate(-64.86)"/></g></svg>