<?xml version="1.0" encoding="utf-8"?>
<!-- Generator: Adobe Illustrator 21.1.0, SVG Export Plug-In . SVG Version: 6.00 Build 0)  -->
<svg version="1.1" id="Layer_1" xmlns="http://www.w3.org/2000/svg" xmlns:xlink="http://www.w3.org/1999/xlink" x="0px" y="0px"
	 viewBox="0 0 512 512" style="enable-background:new 0 0 512 512;" xml:space="preserve">
<style type="text/css">
	.st0{fill:#FFFFFF;}
	.st1{fill:#790CE2;stroke:#FFFFFF;stroke-width:9;stroke-miterlimit:10;}
	.st2{fill:#790CE2;}
	.st3{fill:none;stroke:#790CE2;stroke-width:9;stroke-miterlimit:10;}
</style>
<g id="Layer_2_1_">
</g>
<ellipse class="st0" cx="254.6" cy="426.7" rx="231.4" ry="68.6"/>
<rect x="22" y="246.9" class="st0" width="464" height="179.8"/>
<ellipse class="st1" cx="254.6" cy="246.9" rx="231.4" ry="68.6"/>
<g id="Layer_1_1_">
	<g id="Layer_2">
	</g>
	<g id="Capa_1">
		<g>
			<path class="st2" d="M313.8,381.3c0,35.3-21.5,43.1-42,45.4c3.3,2.9,6.2,8.5,6.2,17c0,12.3-0.1,22.2-0.1,25.2
				c0,2.4,1.7,5.3,6.3,4.4c-4.5,2.9-15.3,6.8-28.6,6.8c-13.9,0.1-24.9-3.6-29.6-6.8c4.6,0.8,6.3-2,6.3-4.4c0-2.2-0.1-9.4-0.1-17.1
				c-25.6,5.6-31-10.9-31-10.9c-4.2-10.6-10.2-13.5-10.2-13.5c-8.3-5.7,0.6-5.6,0.6-5.6c9.2,0.7,14.1,9.5,14.1,9.5
				c8.2,14,21.5,10,26.8,7.6c0.8-6,3.2-10,5.8-12.3c-20.4-2.3-41.9-10.2-41.9-45.4c0-10,3.6-18.2,9.5-24.7
				c-0.9-2.3-4.1-11.7,0.9-24.3c0,0,7.7-2.5,25.3,9.4c7.3-2,15.2-3,23-3.1c7.8,0,15.7,1.1,23,3.1c17.5-11.9,25.3-9.4,25.3-9.4
				c5,12.7,1.9,22,0.9,24.3C310.2,363,313.8,371.2,313.8,381.3"/>
			<path class="st0" d="M198,426.1c-0.2,0.5-0.9,0.6-1.6,0.3c-0.7-0.3-1.1-0.9-0.8-1.4c0.2-0.5,0.9-0.6,1.6-0.3
				C197.9,425.1,198.3,425.7,198,426.1L198,426.1z"/>
			<path class="st0" d="M201.8,430.3c-0.4,0.4-1.3,0.2-1.9-0.4c-0.6-0.7-0.7-1.5-0.3-1.9c0.4-0.4,1.3-0.2,1.9,0.4
				C202.1,429,202.2,429.9,201.8,430.3L201.8,430.3z"/>
			<path class="st0" d="M205.4,435.6c-0.6,0.4-1.5,0-2.1-0.8c-0.6-0.8-0.6-1.8,0-2.2c0.6-0.4,1.5,0,2.1,0.8
				C205.9,434.2,205.9,435.2,205.4,435.6L205.4,435.6z"/>
			<path class="st0" d="M210.3,440.7c-0.5,0.5-1.6,0.4-2.4-0.4c-0.8-0.7-1-1.8-0.5-2.4c0.5-0.5,1.6-0.4,2.4,0.4
				C210.7,439.1,210.9,440.2,210.3,440.7L210.3,440.7z"/>
			<path class="st0" d="M217.2,443.7c-0.2,0.7-1.3,1.1-2.3,0.7c-1.1-0.3-1.7-1.2-1.5-1.9c0.2-0.7,1.3-1.1,2.3-0.7
				C216.7,442.1,217.4,442.9,217.2,443.7L217.2,443.7z"/>
			<path class="st0" d="M224.7,444.2c0,0.8-0.9,1.4-2,1.4c-1.1,0-2-0.6-2-1.3c0-0.8,0.9-1.4,2-1.4
				C223.8,442.9,224.7,443.5,224.7,444.2L224.7,444.2z"/>
			<path class="st0" d="M231.7,443.1c0.1,0.7-0.6,1.5-1.7,1.7c-1.1,0.2-2.1-0.3-2.2-1c-0.1-0.8,0.7-1.5,1.7-1.7
				C230.6,441.9,231.6,442.3,231.7,443.1L231.7,443.1z"/>
		</g>
	</g>
</g>
<path class="st0" d="M459,83.3c0-5.1,1.4-9.8,3.9-14c-16-0.4-29.4-9.8-33.5-22.6c-3.6,1-7.4,1.6-11.4,1.6c-13.9,0-26-6.8-32-16.8
	c-0.7-0.2-1.4-0.4-2.1-0.5c-6.1,4-13.6,6.4-21.8,6.4c-13.3,0-25-6.3-31.2-15.6c-6.5,5.3-15.2,8.6-24.8,8.6c-10,0-19.1-3.5-25.6-9.2
	c-6.4,5.1-15,8.2-24.4,8.2c-9.8,0-18.6-3.4-25.1-8.8c-5.9,3.6-13.1,5.8-20.9,5.8c-9.1,0-17.4-2.9-23.7-7.7
	c-6.2,9.4-17.9,15.7-31.3,15.7c-8.7,0-16.7-2.6-22.9-7.1c-6.4,8.5-17.5,14.1-30.1,14.1c-5.1,0-10-0.9-14.4-2.6
	c-0.9,0.3-1.8,0.6-2.6,0.9c-3.8,13.6-18,23.7-35,23.7c-3.1,0-6-0.3-8.9-0.9c2.5,4.2,3.9,8.9,3.9,13.9c0,13.1-9.4,24.3-22.8,28.8
	c15.9,3.2,27.8,15.5,27.8,30.2c0,0.1,0,0.3,0,0.4c4.3-1.6,9-2.4,14-2.4c17.7,0,32.3,10.9,35.4,25.4c0.1,0,0.1,0,0.2,0.1
	c5.8-3.4,12.8-5.4,20.4-5.4c14.2,0,26.5,7.1,32.4,17.5c0.3,0,0.5,0.1,0.8,0.1c6.5-5.3,15.2-8.6,24.8-8.6c12.9,0,24.3,5.9,30.6,14.7
	c13,0.8,26.4,1.2,40,1.2c19.5,0,38.4-0.9,56.4-2.5c6.6-7,16.7-11.5,27.9-11.5c7.2,0,13.9,1.8,19.6,5c6.6-7.3,16.9-12,28.4-12
	c4.9,0,9.5,0.8,13.7,2.3c0,0,0.1,0,0.1,0c4.7-12.4,18.2-21.3,34.2-21.3c4.7,0,9.3,0.8,13.4,2.2c0.2-0.1,0.4-0.2,0.6-0.3
	c0.1-16.1,14.3-29.3,32.5-30.7c0,0,0,0,0-0.1C465.6,103.9,459,94.3,459,83.3z"/>
<ellipse class="st3" cx="248.5" cy="95.3" rx="176.5" ry="53"/>
</svg>
