<?xml version="1.0" encoding="utf-8"?>
<!-- Generator: Adobe Illustrator 21.1.0, SVG Export Plug-In . SVG Version: 6.00 Build 0)  -->
<svg version="1.1" id="Layer_1" xmlns="http://www.w3.org/2000/svg" xmlns:xlink="http://www.w3.org/1999/xlink" x="0px" y="0px"
	 viewBox="0 0 512 512" style="enable-background:new 0 0 512 512;" xml:space="preserve">
<style type="text/css">
	.st0{fill:#FFFFFF;}
	.st1{fill:#790CE2;}
</style>
<g>
	<path class="st0" d="M34,322.5c-7.3-79.8,40.9-149.6,166.2-161c125.3-11.4,284.3,81.6,287.7,119.6
		c4.9,54.2-126.5,157.4-251.9,168.8S41.3,402.4,34,322.5z"/>
	<g>
		<path class="st1" d="M166.7,235.4c-5.6,0.5-10,2.7-13.2,6.6c-3.2,3.8-4.5,8.5-4,13.9c0.5,5.3,2.6,9.6,6.4,12.9
			c3.8,3.3,8.3,4.6,13.7,4.1l0.2,0c5.6-0.5,10-2.7,13.2-6.6c3.2-3.8,4.5-8.5,4-13.8c-0.6-5.4-2.7-9.6-6.5-12.9
			C176.9,236.2,172.3,234.9,166.7,235.4L166.7,235.4z M161.5,386.6l37.4-3.4l-9.1-99.5l-37.4,3.4L161.5,386.6z M334.7,358.3
			c1.9,20.7-13.3,38.9-34,40.8l-124.5,11.3c-20.7,1.9-38.9-13.3-40.8-34l-11.4-124.6c-1.9-20.7,13.3-38.9,34-40.8l124.5-11.3
			c20.7-1.9,38.9,13.3,40.8,34L334.7,358.3L334.7,358.3z M264.6,276.8c-11.4,1-17.5,3-23.7,14.7l-1.1-12.5l-37.4,3.4l4,22.7l5.1,77
			l37.4-3.4l-5.7-62.2c-0.5-6-2-6.3,0.9-9.9c3-3.5,5.1-5.4,10-5.8c5-0.5,12.4,0.7,12.9,5.4c0.8,9,1.6,13.1,2.2,20.4l4.5,49.8
			l37.3-3.4l-5.3-58.1c-1.2-13.7-5.6-24.1-13.2-31.1C284.9,276.7,275.7,275.8,264.6,276.8z"/>
	</g>
	<ellipse transform="matrix(0.9493 -0.3144 0.3144 0.9493 -40.5242 126.6996)" class="st0" cx="372.6" cy="189" rx="26.8" ry="43"/>
	<g>
		<path class="st0" d="M67.2,348.3c-0.1,0.1-0.3,0.4-0.4,0.7l-0.5,0.8l-0.9,1.6c-0.7,1.1-1.2,2.3-1.8,3.4c-1.2,2.3-2.4,4.7-3.4,7.1
			c-2.2,4.8-4,9.8-5.6,14.7c-3.1,10-5.2,20.3-5.2,30.6c0,10.2,2,20.3,6.7,29.2s11.9,16.6,20.5,22.6c8.7,6,18.6,10.5,29,13.9
			c10.4,3.4,21.2,5.6,32.2,7.3c22,3.2,44.4,3.7,66.8,3.2c-22.3,2.2-44.8,3.4-67.3,1.8c-11.3-0.8-22.6-2.4-33.8-5.1
			c-11.1-2.7-22.2-6.6-32.4-12.7c-5.1-3-10-6.6-14.4-10.7c-4.4-4.1-8.4-8.9-11.6-14.1c-6.5-10.5-10-22.8-10.9-34.9
			c-0.9-12.2,0.5-24.2,3.3-35.8c1.4-5.8,3.1-11.5,5.1-17.1c1-2.8,2.1-5.6,3.2-8.3c0.5-1.4,1.2-2.8,1.8-4.1l1-2.1l0.5-1l0.8-1.1
			L67.2,348.3z"/>
	</g>
</g>
<path class="st0" d="M83,60c-29.7-2.6-55.9,19.4-58.5,49.1s19.4,55.9,49.1,58.5c29.7,2.6,55.9-19.4,58.5-49.1
	C134.7,88.8,112.7,62.6,83,60z M74.9,151.7c-19.9-1.7-34.5-19.2-32.8-39.1c1.7-19.9,19.2-34.5,39.1-32.8
	c19.9,1.7,34.5,19.2,32.8,39.1C112.3,138.8,94.8,153.4,74.9,151.7z"/>
<path class="st0" d="M168.2,27.3c-29.7-2.6-55.9,19.4-58.5,49.1s19.4,55.9,49.1,58.5c29.7,2.6,55.9-19.4,58.5-49.1
	C219.8,56.1,197.9,29.9,168.2,27.3z M160.1,119c-19.9-1.7-34.5-19.2-32.8-39.1c1.7-19.9,19.2-34.5,39.1-32.8
	c19.9,1.7,34.5,19.2,32.8,39.1C197.5,106.1,180,120.8,160.1,119z"/>
<rect x="129.9" y="113.7" transform="matrix(0.9477 -0.3191 0.3191 0.9477 -42.7818 53.3247)" class="st0" width="23" height="87"/>
</svg>
