<?xml version="1.0" encoding="utf-8"?>
<!-- Generator: Adobe Illustrator 21.1.0, SVG Export Plug-In . SVG Version: 6.00 Build 0)  -->
<svg version="1.1" id="Layer_1" xmlns="http://www.w3.org/2000/svg" xmlns:xlink="http://www.w3.org/1999/xlink" x="0px" y="0px"
	 viewBox="0 0 512 512" style="enable-background:new 0 0 512 512;" xml:space="preserve">
<style type="text/css">
	.st0{fill:none;stroke:#FFFFFF;stroke-width:8;stroke-miterlimit:10;}
	.st1{fill:#FFFFFF;}
	.st2{fill:#790CE2;}
	.st3{fill:none;stroke:#790CE2;stroke-width:5;stroke-miterlimit:10;}
	.st4{fill:none;stroke:#FFFFFF;stroke-width:3;stroke-miterlimit:10;}
	.st5{fill:none;stroke:#FFFFFF;stroke-width:6;stroke-miterlimit:10;}
</style>
<g id="Layer_1_1_">
	<path class="st0" d="M252.4,497.4l-97.8-29.5c-33.2-10-52.1-45.3-42.1-78.5l56.3-186.5c10-33.2,95-108.3,106.2-133.9l97.8,29.5
		c-9.8,28.2,24.4,137.1,14.4,170.3l-56.4,186.5C320.8,488.4,285.5,507.4,252.4,497.4z"/>
	<path class="st1" d="M263,205.4c30-1.8,61-4.8,89.3,5.4c18.6,6.7,36.5,21.4,37.9,41.1c0.6,8.3-1.8,16.5-4.1,24.5
		c-7.4,24.9-14.7,49.8-22.1,74.7c-10.8,36.6-21.7,73.2-35.5,108.8c-3.3,8.4-6.8,17-12.7,23.8c-10.5,12.1-27.4,17.1-43.4,16.9
		s-31.6-5.1-46.9-10c-14.8-4.7-29.7-9.4-44.5-14.1c-21.5-6.8-44.6-14.8-57.2-33.5c-16-23.9-8.8-55.7-1.2-83.4
		c6.5-23.5,13.1-47.1,19.6-70.6c4.4-15.8,8.8-31.7,13.8-47.4c3.1-9.7,8.7-40.5,18.1-45.3c8.2-4.3,28.6,6.9,37.6,8.2
		C228.7,207,246,206.5,263,205.4z"/>
	<path class="st1" d="M376.7,99.7L271.9,68c-6.3-1.9-9.9-8.6-8-15l10-33.1c1.9-6.3,8.6-9.9,15-8l104.8,31.6c6.3,1.9,9.9,8.6,8,15
		l-10,33.1C389.7,97.9,383,101.6,376.7,99.7z"/>
</g>
<g id="Layer_2">
</g>
<g>
	<path class="st2" d="M278.6,421.5L176.8,386c-6.2-2.2-9.6-9.1-7.4-15.3l29-83.1c2.2-6.2,9.1-9.6,15.3-7.4l101.8,35.5
		c6.2,2.2,9.6,9.1,7.4,15.3l-29,83.1C291.7,420.4,284.9,423.7,278.6,421.5z"/>
	<path class="st2" d="M172.3,346.1c-10.4-3.6-15.3-16.6-11-28.9c4.3-12.4,16.2-19.5,26.6-15.8"/>
	<path class="st2" d="M307,393.1c10.4,3.6,22.3-3.5,26.6-15.8s-0.6-25.3-11-28.9"/>
	<line class="st3" x1="141.7" y1="310.4" x2="161.3" y2="317.2"/>
	<line class="st3" x1="331" y1="376.4" x2="350.6" y2="383.3"/>
	
		<ellipse transform="matrix(0.3294 -0.9442 0.9442 0.3294 -161.4797 448.8504)" class="st4" cx="235.2" cy="338.1" rx="6.7" ry="6.7"/>
	
		<ellipse transform="matrix(0.3294 -0.9442 0.9442 0.3294 -147.3707 483.674)" class="st5" cx="266.8" cy="345.6" rx="9.7" ry="7.8"/>
	<g>
		<path class="st1" d="M219,313.7c6.4,0.9,12.7,2.1,19,3.5c3.1,0.7,6.3,1.5,9.4,2.3c3.1,0.9,6.2,1.8,9.3,2.8
			c3.1,1.1,6.1,2.2,9.1,3.4c3,1.3,5.9,2.6,8.8,4c5.8,2.8,11.5,5.9,17,9.2c-6.1-2.2-12-4.7-17.9-7c-3-1.2-5.9-2.4-8.9-3.5
			c-3-1.1-6-2.2-9-3.2c-3-1.1-6-2-9.1-3c-3-1-6.1-1.9-9.2-2.8C231.2,317.6,225.1,315.8,219,313.7z"/>
	</g>
	<path class="st4" d="M192.4,353.2c5.6,2.2,11.5,3.5,17.2,5.7c9,3.4,37.6,13.7,54,19c6.6,2.2,15.1,5.8,25.5,9"/>
</g>
</svg>
