<?xml version="1.0" encoding="utf-8"?>
<!-- Generator: Adobe Illustrator 21.1.0, SVG Export Plug-In . SVG Version: 6.00 Build 0)  -->
<svg version="1.1" id="Layer_1" xmlns="http://www.w3.org/2000/svg" xmlns:xlink="http://www.w3.org/1999/xlink" x="0px" y="0px"
	 viewBox="0 0 512 512" style="enable-background:new 0 0 512 512;" xml:space="preserve">
<style type="text/css">
	.st0{fill:#FFFFFF;}
	.st1{fill:none;stroke:#FFFFFF;stroke-width:34;stroke-linecap:round;stroke-miterlimit:10;}
	.st2{fill:#790CE2;}
</style>
<path class="st0" d="M319.4,499.5H67.3c-27.4,0-49.8-22.4-49.8-49.8V197.6c0-27.4,22.4-49.8,49.8-49.8h252.1
	c27.4,0,49.8,22.4,49.8,49.8v252.1C369.2,477.1,346.8,499.5,319.4,499.5z"/>
<path class="st0" d="M17.4,219V50.5c0,0,1.8-66.2,47.7-19.6S221,193.4,221,193.4L17.4,219z"/>
<path class="st0" d="M369.4,219V50.5c0,0-1.9-66.2-49.7-19.6S157,193.4,157,193.4L369.4,219z"/>
<path class="st1" d="M312.9,483H459c0,0,39-4.8,16-47c-18.9-34.6-86-32-71-73"/>
<path class="st2" d="M120.7,455.6c19.6-2.4,27.5-0.7,41.7-14.8c-5.8-0.9-33.2-5.7-52.4-30.8c-21.8-28.4-16-60.5-15-65.4
	c-0.9-7.5,3.1-15,6.3-22.2c12.3,11.8,23.6,20.7,39.8,26.7s33.1,8.4,50.7,7.2c-1-2.5-1.8-5.7-2.2-9.6c-1.4-11.7,1.5-22.3,8.8-31.7
	c7.3-9.4,16.8-14.7,28.6-16.2c12.4-1.5,23.4,1.6,32.7,9.6c9.1-2.9,17.7-7.5,25.9-13.7c-2.1,10.8-7.4,19.5-16,26
	c8.6-2.3,12.5-2.6,19.7-6.9c-4.7,9.3-6.9,14.5-14.6,21.7c0.3,1.2,0.6,3,0.9,5.5c1.4,11.4,1.1,23-0.8,34.8s-5.7,23.4-11.2,34.7
	c-5.5,11.3-12.6,21.6-21.1,30.8c-8.5,9.2-19,17-31.7,23.5c-12.7,6.4-26.6,9.5-41.7,11.4c-6.2-0.7-16.7-0.3-26.1-4.2
	C131.8,467.3,125.8,460.2,120.7,455.6z"/>
<path class="st2" d="M96.8,375.4"/>
</svg>
